<svg width="24" height="30" viewBox="0 0 24 30" fill="none" xmlns="http://www.w3.org/2000/svg">
<path d="M13.5 7.5V1.5H5.5C3.61438 1.5 2.67157 1.5 2.08579 2.08579C1.5 2.67157 1.5 3.61438 1.5 5.5V24.5C1.5 26.3856 1.5 27.3284 2.08579 27.9142C2.67157 28.5 3.61438 28.5 5.5 28.5H18.5C20.3856 28.5 21.3284 28.5 21.9142 27.9142C22.5 27.3284 22.5 26.3856 22.5 24.5V10.5H16.5C15.0858 10.5 14.3787 10.5 13.9393 10.0607C13.5 9.62132 13.5 8.91421 13.5 7.5Z" fill="#7E869E" fill-opacity="0.25"/>
<path d="M13.7574 1.5H7.5C4.67157 1.5 3.25736 1.5 2.37868 2.37868C1.5 3.25736 1.5 4.67157 1.5 7.5V22.5C1.5 25.3284 1.5 26.7426 2.37868 27.6213C3.25736 28.5 4.67157 28.5 7.5 28.5H16.5C19.3284 28.5 20.7426 28.5 21.6213 27.6213C22.5 26.7426 22.5 25.3284 22.5 22.5V10.2426C22.5 9.62951 22.5 9.32295 22.3858 9.04729C22.2716 8.77164 22.0549 8.55487 21.6213 8.12132L15.8787 2.37868C15.4451 1.94513 15.2284 1.72836 14.9527 1.61418C14.6771 1.5 14.3705 1.5 13.7574 1.5Z" stroke="white" stroke-width="1.2"/>
<path d="M7.5 16.5L16.5 16.5" stroke="white" stroke-width="1.2" stroke-linecap="round"/>
<path d="M7.5 22.5L13.5 22.5" stroke="white" stroke-width="1.2" stroke-linecap="round"/>
</svg>
