<svg width="40" height="40" viewBox="0 0 40 40" fill="none" xmlns="http://www.w3.org/2000/svg">
<path d="M6.66675 13.3332L6.31319 12.9796L5.95964 13.3332L6.31319 13.6867L6.66675 13.3332ZM32.8334 16.6665C32.8334 16.9426 33.0573 17.1665 33.3334 17.1665C33.6096 17.1665 33.8334 16.9426 33.8334 16.6665L32.8334 16.6665ZM12.9799 6.31295L6.31319 12.9796L7.0203 13.6867L13.687 7.02006L12.9799 6.31295ZM6.31319 13.6867L12.9799 20.3534L13.687 19.6463L7.0203 12.9796L6.31319 13.6867ZM6.66675 13.8332L31.3334 13.8332L31.3334 12.8332L6.66675 12.8332L6.66675 13.8332ZM32.8334 15.3332L32.8334 16.6665L33.8334 16.6665L33.8334 15.3332L32.8334 15.3332ZM31.3334 13.8332C32.1618 13.8332 32.8334 14.5047 32.8334 15.3332L33.8334 15.3332C33.8334 13.9525 32.7141 12.8332 31.3334 12.8332L31.3334 13.8332Z" fill="white"/>
<path d="M33.3335 26.6667L33.6871 26.3131L34.0406 26.6667L33.6871 27.0202L33.3335 26.6667ZM7.00016 26.6667L7.00016 26.1667L7.00016 26.6667ZM4.50016 23.3333C4.50016 23.0572 4.72402 22.8333 5.00016 22.8333C5.2763 22.8333 5.50016 23.0572 5.50016 23.3333L4.50016 23.3333ZM27.0204 19.6464L33.6871 26.3131L32.9799 27.0202L26.3133 20.3536L27.0204 19.6464ZM33.6871 27.0202L27.0204 33.6869L26.3133 32.9798L32.9799 26.3131L33.6871 27.0202ZM33.3335 27.1667L7.00016 27.1667L7.00016 26.1667L33.3335 26.1667L33.3335 27.1667ZM4.50016 24.6667L4.50016 23.3333L5.50016 23.3333L5.50016 24.6667L4.50016 24.6667ZM7.00016 27.1667C5.61945 27.1667 4.50016 26.0474 4.50016 24.6667L5.50016 24.6667C5.50016 25.4951 6.17174 26.1667 7.00016 26.1667L7.00016 27.1667Z" fill="white"/>
</svg>
