<svg width="36" height="36" viewBox="0 0 36 36" fill="none" xmlns="http://www.w3.org/2000/svg">
<path d="M4.5 13.5V25.5C4.5 28.3284 4.5 29.7426 5.37868 30.6213C6.25736 31.5 7.67157 31.5 10.5 31.5H25.5C28.3284 31.5 29.7426 31.5 30.6213 30.6213C31.5 29.7426 31.5 28.3284 31.5 25.5V10.5C31.5 7.67157 31.5 6.25736 30.6213 5.37868C29.7426 4.5 28.3284 4.5 25.5 4.5H13.5" stroke="white" stroke-width="2" stroke-linecap="round"/>
<path d="M22.5 22.5V23.5H23.5V22.5H22.5ZM11.2071 9.79289C10.8166 9.40237 10.1834 9.40237 9.79289 9.79289C9.40237 10.1834 9.40237 10.8166 9.79289 11.2071L11.2071 9.79289ZM21.5 12V22.5H23.5V12H21.5ZM22.5 21.5H12V23.5H22.5V21.5ZM23.2071 21.7929L11.2071 9.79289L9.79289 11.2071L21.7929 23.2071L23.2071 21.7929Z" fill="white"/>
</svg>
