<svg width="36" height="36" viewBox="0 0 36 36" fill="none" xmlns="http://www.w3.org/2000/svg">
<path d="M6 17.5C6 15.6144 6 14.6716 6.58579 14.0858C7.17157 13.5 8.11438 13.5 10 13.5H26C27.8856 13.5 28.8284 13.5 29.4142 14.0858C30 14.6716 30 15.6144 30 17.5V25.5C30 28.3284 30 29.7426 29.1213 30.6213C28.2426 31.5 26.8284 31.5 24 31.5H12C9.17157 31.5 7.75736 31.5 6.87868 30.6213C6 29.7426 6 28.3284 6 25.5V17.5Z" fill="#7E869E" fill-opacity="0.25" stroke="white" stroke-width="1.2"/>
<path d="M24 12V10.5C24 9.57099 24 9.10649 23.9384 8.71783C23.5996 6.57837 21.9216 4.90042 19.7822 4.56156C19.3935 4.5 18.929 4.5 18 4.5V4.5C17.071 4.5 16.6065 4.5 16.2178 4.56156C14.0784 4.90042 12.4004 6.57837 12.0616 8.71783C12 9.10649 12 9.57099 12 10.5V12" stroke="white" stroke-width="1.2" stroke-linecap="round"/>
<ellipse cx="18" cy="22.5" rx="3" ry="3" fill="white"/>
</svg>
