<svg width="41" height="41" viewBox="0 0 41 41" fill="none" xmlns="http://www.w3.org/2000/svg">
<path d="M5.125 5.125V4.625H4.625V5.125H5.125ZM21.8548 22.5619C22.05 22.7571 22.3666 22.7571 22.5619 22.5619C22.7571 22.3666 22.7571 22.05 22.5619 21.8548L21.8548 22.5619ZM5.625 18.7917V5.125H4.625V18.7917H5.625ZM5.125 5.625H18.7917V4.625H5.125V5.625ZM4.77145 5.47855L21.8548 22.5619L22.5619 21.8548L5.47855 4.77145L4.77145 5.47855Z" fill="white"/>
<path d="M6.83325 25.6252V28.1668C6.83325 30.9953 6.83325 32.4095 7.71193 33.2881C8.59061 34.1668 10.0048 34.1668 12.8333 34.1668H28.1666C30.995 34.1668 32.4092 34.1668 33.2879 33.2881C34.1666 32.4095 34.1666 30.9953 34.1666 28.1668V12.8335C34.1666 10.0051 34.1666 8.59086 33.2879 7.71218C32.4092 6.8335 30.995 6.8335 28.1666 6.8335H25.6249" stroke="white" stroke-linecap="round"/>
</svg>
